<svg width="11" height="18" viewBox="0 0 11 18" fill="none" xmlns="http://www.w3.org/2000/svg">
<path d="M9.93971 0.348553C9.8295 0.238067 9.69858 0.150408 9.55445 0.0905973C9.41031 0.0307868 9.25579 0 9.09973 0C8.94368 0 8.78916 0.0307868 8.64502 0.0905973C8.50088 0.150408 8.36996 0.238067 8.25975 0.348553L0.277567 8.33074C0.189579 8.41854 0.119773 8.52284 0.0721445 8.63766C0.0245158 8.75248 0 8.87557 0 8.99987C0 9.12418 0.0245158 9.24726 0.0721445 9.36208C0.119773 9.4769 0.189579 9.5812 0.277567 9.66901L8.25975 17.6512C8.72483 18.1163 9.47464 18.1163 9.93971 17.6512C10.4048 17.1861 10.4048 16.4363 9.93971 15.9712L2.9731 9.00462L9.9492 2.02851C10.4048 1.56344 10.4048 0.813627 9.93971 0.348553Z" fill="url(#paint0_linear_3519_2483)"/>
<defs>
<linearGradient id="paint0_linear_3519_2483" x1="5.14486" y1="0" x2="5.14486" y2="18" gradientUnits="userSpaceOnUse">
<stop stop-color="#cbaa5d"/>
<stop offset="1" stop-color="#cbaa5d"/>
</linearGradient>
</defs>
</svg>
