<svg width="81" height="80" viewBox="0 0 81 80" fill="none" xmlns="http://www.w3.org/2000/svg">
<g clip-path="url(#clip0_350_685)">
<path d="M52.3732 63.717C47.3586 66.6829 41.5049 68.3805 35.2513 68.3805C16.6366 68.3805 1.54395 53.2878 1.54395 34.6829C1.54395 16.078 16.6366 0.975586 35.2513 0.975586C46.8805 0.975586 57.1439 6.86827 63.2025 15.8341" stroke="#CBAA5D" stroke-width="2" stroke-linecap="round" stroke-linejoin="round"/>
<path d="M7.06592 16.4977C8.61714 16.205 10.1098 17.3562 11.6806 17.3269C13.0854 17.2977 14.2952 16.3611 15.2415 15.3269C16.1879 14.2928 17.0074 13.1123 18.1781 12.3416C19.3586 11.5611 20.861 11.2196 21.8074 10.1562C22.1293 9.79523 22.3732 9.36596 22.6757 8.98547C23.6123 7.83425 25.1049 7.25864 26.5684 7.0245C28.0318 6.79035 29.5342 6.82937 31.0171 6.63425C32.4025 6.45864 33.9245 5.94157 34.5196 4.67328C34.9098 3.84401 34.7732 2.80011 34.1976 2.08791C33.622 1.37572 32.6171 1.04401 31.7293 1.2684" stroke="#CBAA5D" stroke-width="2" stroke-linecap="round" stroke-linejoin="round"/>
<path d="M44.822 2.3999C44.6562 4.09746 45.183 5.85356 46.2464 7.18039C44.1684 7.48283 42.0903 8.156 40.4318 9.45356C38.7733 10.7511 37.583 12.7511 37.6025 14.8487C37.6025 15.1511 37.6415 15.4828 37.8367 15.7072C38.0123 15.9219 38.2952 16.0097 38.5586 16.0877C41.0172 16.7706 43.7976 16.7219 45.8074 18.2828C47.1928 19.356 48.0123 21.1316 47.9147 22.878C47.8855 23.395 47.7684 23.9414 47.4074 24.3023C47.0952 24.6145 46.6562 24.7511 46.2367 24.878C44.1879 25.4926 42.1391 26.1072 40.0903 26.7219C39.0172 27.0438 37.8172 27.356 36.8318 26.8194C35.5245 26.1072 35.0855 24.117 33.622 23.8243C33.0269 23.7072 32.422 23.9219 31.8659 24.1755C28.6757 25.5999 26.0123 28.1853 24.4806 31.3365C24.2367 31.8438 24.0123 32.3901 24.022 32.956C24.022 33.6097 24.344 34.2341 24.7342 34.7609C26.3147 36.8975 29.0074 37.8048 31.5245 38.6731C34.0415 39.5414 36.7147 40.6145 38.0611 42.9072C38.822 44.195 39.0562 45.7267 39.2708 47.2097C39.5537 49.1511 39.8464 51.0828 40.1294 53.0243C40.2854 54.0584 40.4415 55.1219 40.9391 56.0487C41.4367 56.9755 42.344 57.7462 43.3879 57.795C44.6367 57.8438 45.6708 56.9072 46.5586 56.0292C48.2952 54.3023 50.1001 52.4877 50.8708 50.156C51.2318 49.0731 51.3586 47.9414 51.5635 46.8194C52.4025 42.4194 54.6855 38.3121 57.9928 35.278" stroke="#CBAA5D" stroke-width="2" stroke-linecap="round" stroke-linejoin="round"/>
<path d="M5.31948 28.3903C4.76338 29.2196 5.59265 30.2537 6.33411 30.9172C7.44631 31.9123 8.54875 32.9659 9.30972 34.244C10.0707 35.522 10.4707 37.0928 10.1 38.5367C9.98289 38.9952 9.78777 39.4537 9.82679 39.9318C9.88533 40.605 10.4024 41.1318 10.9097 41.5806C13.1829 43.5513 15.9439 44.9464 18.8707 45.6098C19.0366 45.6489 19.2122 45.6781 19.3683 45.6098C19.5146 45.5318 19.6024 45.3757 19.6609 45.2196C20.1683 43.8147 19.2122 42.3611 18.4512 41.0733C17.5048 39.483 16.7926 37.7562 16.3439 35.9611C16.1683 35.2684 16.0414 34.5464 16.2463 33.8635C16.4122 33.2976 16.8024 32.8294 17.0756 32.3123C17.739 31.0928 17.817 29.6586 17.8366 28.2733C17.8366 27.5318 17.8366 26.7708 17.5439 26.0879C17.1341 25.1318 16.178 24.4684 15.1536 24.3025C14.1292 24.1367 13.0561 24.4391 12.1975 25.0147C11.0463 25.7952 10.2463 27.0245 8.86094 27.405C7.81704 27.6879 6.01216 27.3659 5.31948 28.3903Z" stroke="#CBAA5D" stroke-width="2" stroke-linecap="round" stroke-linejoin="round"/>
<path d="M68.9586 56.517C73.183 58.595 75.9928 63.1219 75.5342 68.2438C75.0367 73.8048 70.6172 78.3316 65.066 78.9462C57.905 79.7365 51.8562 74.156 51.8562 67.1609C51.8562 62.6828 54.344 58.7804 58.0025 56.7609V21.3755C58.0025 18.3511 60.4513 15.9023 63.4757 15.9023C66.5001 15.9023 68.9489 18.3511 68.9489 21.3755V56.517H68.9586Z" stroke="#CBAA5D" stroke-width="2" stroke-linecap="round" stroke-linejoin="round"/>
<path d="M63.7195 72.4C66.6129 72.4 68.9585 70.0545 68.9585 67.161C68.9585 64.2676 66.6129 61.922 63.7195 61.922C60.8261 61.922 58.4805 64.2676 58.4805 67.161C58.4805 70.0545 60.8261 72.4 63.7195 72.4Z" stroke="#CBAA5D" stroke-width="2" stroke-linecap="round" stroke-linejoin="round"/>
<path d="M63.7195 61.922V24.2537" stroke="#CBAA5D" stroke-width="2" stroke-linecap="round" stroke-linejoin="round"/>
<path d="M72.8904 23.7854H79.4562" stroke="#CBAA5D" stroke-width="2" stroke-linecap="round" stroke-linejoin="round"/>
<path d="M72.8904 31.1805H79.4562" stroke="#CBAA5D" stroke-width="2" stroke-linecap="round" stroke-linejoin="round"/>
<path d="M72.8904 38.5658H79.4562" stroke="#CBAA5D" stroke-width="2" stroke-linecap="round" stroke-linejoin="round"/>
<path d="M72.8904 45.9609H79.4562" stroke="#CBAA5D" stroke-width="2" stroke-linecap="round" stroke-linejoin="round"/>
<path d="M72.8904 53.3561H79.4562" stroke="#CBAA5D" stroke-width="2" stroke-linecap="round" stroke-linejoin="round"/>
</g>
<defs>
<clipPath id="clip0_350_685">
<rect width="79.8634" height="80" fill="white" transform="translate(0.568359)"/>
</clipPath>
</defs>
</svg>
