<svg width="81" height="80" viewBox="0 0 81 80" fill="none" xmlns="http://www.w3.org/2000/svg">
<g clip-path="url(#clip0_350_702)">
<path d="M29.2171 33.6975C27.8024 31.3658 26.9927 28.6244 26.9927 25.6975C26.9927 17.1512 33.9195 10.2244 42.4658 10.2244C51.0122 10.2244 57.939 17.1512 57.939 25.6975C57.939 26.2341 57.9098 26.7609 57.861 27.278" stroke="#CBAA5D" stroke-width="2" stroke-linecap="round" stroke-linejoin="round"/>
<path d="M48.6902 25.7853C49.2073 25.7365 49.7341 25.7073 50.2707 25.7073C55.8512 25.7073 60.7487 28.6634 63.4707 33.1024" stroke="#CBAA5D" stroke-width="2" stroke-linecap="round" stroke-linejoin="round"/>
<path d="M60.4463 38.0293C61.4707 33.8537 65.2463 30.7512 69.7439 30.7512C75.0317 30.7512 79.3146 35.0341 79.3146 40.322C79.3146 45.6098 75.0317 49.8927 69.7439 49.8927H11.2658C5.978 49.8927 1.69507 45.6098 1.69507 40.322C1.69507 35.0341 5.978 30.7512 11.2658 30.7512C11.7634 30.7512 12.2512 30.7902 12.7292 30.8585" stroke="#CBAA5D" stroke-width="2" stroke-linecap="round" stroke-linejoin="round"/>
<path d="M13.8608 39.5512C12.9047 37.8439 12.3584 35.8829 12.3584 33.7854C12.3584 27.2878 17.6267 22.0195 24.1243 22.0195C25.2364 22.0195 26.3096 22.1756 27.334 22.4586" stroke="#CBAA5D" stroke-width="2" stroke-linecap="round" stroke-linejoin="round"/>
<path d="M23.6658 65.8536C23.6658 63.4341 28.0365 54.8585 28.0365 54.8585C28.0365 54.8585 32.4072 63.4439 32.4072 65.8536C32.4072 68.2634 30.4463 70.2244 28.0365 70.2244C25.6267 70.2244 23.6658 68.2634 23.6658 65.8536Z" stroke="#CBAA5D" stroke-width="2" stroke-linecap="round" stroke-linejoin="round"/>
<path d="M53.5684 74.6537C53.5684 72.2342 57.9391 63.6586 57.9391 63.6586C57.9391 63.6586 62.3098 72.2439 62.3098 74.6537C62.3098 77.0634 60.3489 79.0244 57.9391 79.0244C55.5293 79.0244 53.5684 77.0634 53.5684 74.6537Z" stroke="#CBAA5D" stroke-width="2" stroke-linecap="round" stroke-linejoin="round"/>
<path d="M42.7 52.9951H47.4317L46.4463 58.9561L50.1439 59.2585L42.9439 68.2829L43.9292 60.2927L40.9731 60.1951L42.7 52.9951Z" stroke="#CBAA5D" stroke-width="2" stroke-linecap="round" stroke-linejoin="round"/>
<path d="M12.7 30.9268C7.54882 28.3122 4.02687 22.9756 4.02687 16.8C4.01711 8.05851 11.1 0.975586 19.8415 0.975586C26.9635 0.975586 32.9927 5.68778 34.9732 12.1561" stroke="#CBAA5D" stroke-width="2" stroke-linecap="round" stroke-linejoin="round"/>
</g>
<defs>
<clipPath id="clip0_350_702">
<rect width="79.561" height="80" fill="white" transform="translate(0.719482)"/>
</clipPath>
</defs>
</svg>
