<svg width="82" height="80" viewBox="0 0 82 80" fill="none" xmlns="http://www.w3.org/2000/svg">
<g clip-path="url(#clip0_350_665)">
<path d="M31.507 20.4493L21.6213 30.335L41.5997 50.3133L51.4854 40.4276L31.507 20.4493Z" stroke="#CBAA5D" stroke-width="2" stroke-linecap="round" stroke-linejoin="round"/>
<path d="M60.3279 0.975033L42.2329 19.0701L52.8637 29.7008L70.9587 11.6058L60.3279 0.975033Z" stroke="#CBAA5D" stroke-width="2" stroke-linecap="round" stroke-linejoin="round"/>
<path d="M58.7743 23.7853L48.1499 13.1609" stroke="#CBAA5D" stroke-width="2" stroke-linecap="round" stroke-linejoin="round"/>
<path d="M64.7743 17.7853L54.1499 7.15112" stroke="#CBAA5D" stroke-width="2" stroke-linecap="round" stroke-linejoin="round"/>
<path d="M47.2621 24.0977L41.2036 30.1464" stroke="#CBAA5D" stroke-width="2" stroke-linecap="round" stroke-linejoin="round"/>
<path d="M12.2736 69.4075L30.3687 51.3125L19.7379 40.6818L1.64287 58.7768L12.2736 69.4075Z" stroke="#CBAA5D" stroke-width="2" stroke-linecap="round" stroke-linejoin="round"/>
<path d="M13.8376 46.5951L24.462 57.2292" stroke="#CBAA5D" stroke-width="2" stroke-linecap="round" stroke-linejoin="round"/>
<path d="M7.82788 52.5951L18.462 63.2292" stroke="#CBAA5D" stroke-width="2" stroke-linecap="round" stroke-linejoin="round"/>
<path d="M25.3499 46.2927L31.3986 40.2341" stroke="#CBAA5D" stroke-width="2" stroke-linecap="round" stroke-linejoin="round"/>
<path d="M26.4718 25.483L23.8181 22.8293" stroke="#CBAA5D" stroke-width="2" stroke-linecap="round" stroke-linejoin="round"/>
<path d="M46.6182 45.2976L50.3352 49.0147" stroke="#CBAA5D" stroke-width="2" stroke-linecap="round" stroke-linejoin="round"/>
<path d="M52.4133 53.717C53.9651 53.717 55.223 52.4591 55.223 50.9073C55.223 49.3555 53.9651 48.0975 52.4133 48.0975C50.8615 48.0975 49.6035 49.3555 49.6035 50.9073C49.6035 52.4591 50.8615 53.717 52.4133 53.717Z" stroke="#CBAA5D" stroke-width="2" stroke-linecap="round" stroke-linejoin="round"/>
<path d="M62.8817 50.5562C63.2134 51.4732 63.3987 52.4586 63.3987 53.4927C63.3987 58.2342 59.5548 62.0781 54.8134 62.0781C53.6231 62.0781 52.5012 61.8342 51.467 61.4049" stroke="#CBAA5D" stroke-width="2" stroke-linecap="round" stroke-linejoin="round"/>
<path d="M71.3207 50.0975C71.5451 51.1902 71.6621 52.3317 71.6621 53.4927C71.6621 62.7902 64.1207 70.3317 54.8231 70.3317C53.6621 70.3317 52.5207 70.2146 51.428 69.9902" stroke="#CBAA5D" stroke-width="2" stroke-linecap="round" stroke-linejoin="round"/>
<path d="M80.1401 50.2341C80.2767 51.2975 80.345 52.3902 80.345 53.4927C80.345 67.5902 68.9109 79.0244 54.8133 79.0244C53.6426 79.0244 52.4913 78.9463 51.3694 78.7902" stroke="#CBAA5D" stroke-width="2" stroke-linecap="round" stroke-linejoin="round"/>
</g>
<defs>
<clipPath id="clip0_350_665">
<rect width="80.6439" height="80" fill="white" transform="translate(0.676758)"/>
</clipPath>
</defs>
</svg>
