<svg width="101" height="80" viewBox="0 0 101 80" fill="none" xmlns="http://www.w3.org/2000/svg">
<g clip-path="url(#clip0_350_716)">
<path d="M53.8268 11.1414C69.6141 11.1414 82.4122 8.86574 82.4122 6.05851C82.4122 3.25129 69.6141 0.975586 53.8268 0.975586C38.0396 0.975586 25.2415 3.25129 25.2415 6.05851C25.2415 8.86574 38.0396 11.1414 53.8268 11.1414Z" stroke="#CBAA5D" stroke-width="2" stroke-linecap="round" stroke-linejoin="round"/>
<path d="M25.2415 6.05858C24.2854 12.8586 29.7195 19.0927 34.1 23.5903C38.1098 27.7171 42.5878 31.3366 46.7244 35.3269C50.861 39.3171 54.2659 43.7366 52.9586 49.5903C52.2659 52.7025 50.5195 55.4342 49.5537 58.4488C48.5098 61.7074 48.0317 65.2196 48.783 68.5952C49.9732 74 54.4512 77.3366 59.4854 79.0147C59.0659 78.8781 58.6951 76.8001 58.6171 76.4586C58.1 74.2927 58.0415 72.0196 58.4415 69.8244C60.1488 60.4781 68.7147 57.2391 75.1049 51.6391C81.6317 45.9122 82.8415 37.7854 79.4561 30.0586C77.6708 25.9805 75.9147 21.9805 76.5781 17.4342C77.1927 13.161 82.422 8.74151 82.422 6.04883" stroke="#CBAA5D" stroke-width="2" stroke-linecap="round" stroke-linejoin="round"/>
<path d="M1.91455 79.0244H99.0853" stroke="#CBAA5D" stroke-width="2" stroke-linecap="round" stroke-linejoin="round"/>
<path d="M48.5877 67.5219C48.2365 67.4927 47.8755 67.4732 47.5145 67.4732C45.8853 67.4732 44.3438 67.8146 42.9487 68.4293C40.9584 65.1317 37.3389 62.9171 33.2023 62.9171C32.1194 62.9171 31.0755 63.0732 30.0901 63.3561C28.0609 60.2146 24.5389 58.1268 20.5194 58.1268C14.2365 58.1268 9.13403 63.2195 9.13403 69.5122C9.13403 73.3854 11.0657 76.8 14.0218 78.8585" stroke="#CBAA5D" stroke-width="2" stroke-linecap="round" stroke-linejoin="round"/>
<path d="M91.1925 78.8586C92.1194 77.2098 92.6462 75.3073 92.6462 73.2781C92.6462 66.9951 87.5535 61.8927 81.2608 61.8927C77.2803 61.8927 73.7682 63.9415 71.7389 67.0439C71.5633 67.0439 71.3974 67.0342 71.2218 67.0342C67.6316 67.0342 64.4316 68.6927 62.3438 71.2878C61.1145 70.722 59.7681 70.361 58.3535 70.2634" stroke="#CBAA5D" stroke-width="2" stroke-linecap="round" stroke-linejoin="round"/>
<path d="M22.7439 18.7317C22.7439 18.7317 34.2366 27.7268 53.8268 22.6146" stroke="#CBAA5D" stroke-width="2" stroke-linecap="round" stroke-linejoin="round"/>
<path d="M45.9243 40.5951C45.9243 40.5951 54.7438 42.5366 63.1146 40.5951" stroke="#CBAA5D" stroke-width="2" stroke-linecap="round" stroke-linejoin="round"/>
<path d="M56.9487 28.2537C56.9487 28.2537 65.856 29.3074 69.817 26.3123" stroke="#CBAA5D" stroke-width="2" stroke-linecap="round" stroke-linejoin="round"/>
<path d="M67.6121 33.278C67.6121 33.278 79.1535 33.0146 82.4218 26.839" stroke="#CBAA5D" stroke-width="2" stroke-linecap="round" stroke-linejoin="round"/>
<path d="M67.6121 49.5024C67.6121 49.5024 78.7145 50.2927 86.2072 47.1219" stroke="#CBAA5D" stroke-width="2" stroke-linecap="round" stroke-linejoin="round"/>
</g>
<defs>
<clipPath id="clip0_350_716">
<rect width="99.1219" height="80" fill="white" transform="translate(0.938965)"/>
</clipPath>
</defs>
</svg>
