<svg width="95" height="80" viewBox="0 0 95 80" fill="none" xmlns="http://www.w3.org/2000/svg">
<g clip-path="url(#clip0_350_731)">
<path d="M86.5389 0.975586H8.46088C4.84005 0.975586 1.90479 3.91085 1.90479 7.53168V55.7366C1.90479 59.3574 4.84005 62.2927 8.46088 62.2927H86.5389C90.1598 62.2927 93.095 59.3574 93.095 55.7366V7.53168C93.095 3.91085 90.1598 0.975586 86.5389 0.975586Z" stroke="#CBAA5D" stroke-width="2" stroke-linecap="round" stroke-linejoin="round"/>
<path d="M81.2707 5.56104H13.7292C10.1084 5.56104 7.1731 8.4963 7.1731 12.1171V51.161C7.1731 54.7819 10.1084 57.7171 13.7292 57.7171H81.2707C84.8915 57.7171 87.8268 54.7819 87.8268 51.161V12.1171C87.8268 8.4963 84.8915 5.56104 81.2707 5.56104Z" stroke="#CBAA5D" stroke-width="2" stroke-linecap="round" stroke-linejoin="round"/>
<path d="M58.3438 62.2927H36.6462V75.7854H58.3438V62.2927Z" stroke="#CBAA5D" stroke-width="2" stroke-linecap="round" stroke-linejoin="round"/>
<path d="M31.1047 75.7854H63.895" stroke="#CBAA5D" stroke-width="2" stroke-linecap="round" stroke-linejoin="round"/>
<path d="M21.9829 79.0244H73.0171" stroke="#CBAA5D" stroke-width="2" stroke-linecap="round" stroke-linejoin="round"/>
<path d="M64.8315 15.2878H81.2023" stroke="#CBAA5D" stroke-width="2" stroke-linecap="round" stroke-linejoin="round"/>
<path d="M81.2023 22.439H64.8315V50.2731H81.2023V22.439Z" stroke="#CBAA5D" stroke-width="2" stroke-linecap="round" stroke-linejoin="round"/>
<path d="M68.022 28.0391H78.3537" stroke="#CBAA5D" stroke-width="2" stroke-linecap="round" stroke-linejoin="round"/>
<path d="M68.022 33.7268H78.3537" stroke="#CBAA5D" stroke-width="2" stroke-linecap="round" stroke-linejoin="round"/>
<path d="M68.022 39.4147H78.3537" stroke="#CBAA5D" stroke-width="2" stroke-linecap="round" stroke-linejoin="round"/>
<path d="M68.022 45.1024H78.3537" stroke="#CBAA5D" stroke-width="2" stroke-linecap="round" stroke-linejoin="round"/>
<path d="M27.4951 28.1464C26.9878 27.2976 26.6951 26.3122 26.6951 25.2488C26.6951 22.1561 29.2024 19.6488 32.2951 19.6488C35.3878 19.6488 37.8951 22.1561 37.8951 25.2488C37.8951 25.4439 37.8853 25.6293 37.8658 25.8244" stroke="#CBAA5D" stroke-width="2" stroke-linecap="round" stroke-linejoin="round"/>
<path d="M34.5391 25.278C34.7244 25.2585 34.9196 25.2488 35.1147 25.2488C37.1342 25.2488 38.9098 26.322 39.8854 27.922" stroke="#CBAA5D" stroke-width="2" stroke-linecap="round" stroke-linejoin="round"/>
<path d="M38.7927 29.7074C39.1634 28.1952 40.5293 27.0732 42.1586 27.0732C44.0708 27.0732 45.622 28.6245 45.622 30.5367C45.622 32.4489 44.0708 34.0001 42.1586 34.0001H20.9976C19.0854 34.0001 17.5342 32.4489 17.5342 30.5367C17.5342 28.6245 19.0854 27.0732 20.9976 27.0732C21.1732 27.0732 21.3586 27.083 21.5244 27.1123" stroke="#CBAA5D" stroke-width="2" stroke-linecap="round" stroke-linejoin="round"/>
<path d="M21.9343 30.2635C21.5831 29.6488 21.3879 28.9366 21.3879 28.1757C21.3879 25.8244 23.2904 23.922 25.6416 23.922C26.0416 23.922 26.4318 23.9805 26.8026 24.0781" stroke="#CBAA5D" stroke-width="2" stroke-linecap="round" stroke-linejoin="round"/>
<path d="M43.8171 23.9805C44.3537 23.0927 44.6659 22.0488 44.6659 20.9366C44.6659 17.6781 42.022 15.0439 38.7732 15.0439C35.9439 15.0439 33.5732 17.0439 33.0073 19.7074" stroke="#CBAA5D" stroke-width="2" stroke-linecap="round" stroke-linejoin="round"/>
<path d="M45.6123 30.1464H50.6562C52.666 30.1464 54.305 28.5172 54.305 26.4977C54.305 24.4781 52.6757 22.8489 50.6562 22.8489C50.4708 22.8489 50.2855 22.8586 50.1001 22.8879" stroke="#CBAA5D" stroke-width="2" stroke-linecap="round" stroke-linejoin="round"/>
<path d="M49.6708 26.2049C50.0318 25.5513 50.2464 24.8098 50.2464 24.0098C50.2464 21.5317 48.2366 19.5317 45.7683 19.5317C45.3488 19.5317 44.9391 19.5903 44.5488 19.6976" stroke="#CBAA5D" stroke-width="2" stroke-linecap="round" stroke-linejoin="round"/>
<path d="M17.5341 36.3512L16.9097 39.7073" stroke="#CBAA5D" stroke-width="2" stroke-linecap="round" stroke-linejoin="round"/>
<path d="M16.0609 44.2537L15.4365 47.6098" stroke="#CBAA5D" stroke-width="2" stroke-linecap="round" stroke-linejoin="round"/>
<path d="M23.495 36.3512L22.8608 39.7073" stroke="#CBAA5D" stroke-width="2" stroke-linecap="round" stroke-linejoin="round"/>
<path d="M22.0219 44.2537L21.3975 47.6098" stroke="#CBAA5D" stroke-width="2" stroke-linecap="round" stroke-linejoin="round"/>
<path d="M29.4462 36.3512L28.8218 39.7073" stroke="#CBAA5D" stroke-width="2" stroke-linecap="round" stroke-linejoin="round"/>
<path d="M27.973 44.2537L27.3486 47.6098" stroke="#CBAA5D" stroke-width="2" stroke-linecap="round" stroke-linejoin="round"/>
<path d="M35.3976 36.3512L34.7732 39.7073" stroke="#CBAA5D" stroke-width="2" stroke-linecap="round" stroke-linejoin="round"/>
<path d="M33.9244 44.2537L33.3 47.6098" stroke="#CBAA5D" stroke-width="2" stroke-linecap="round" stroke-linejoin="round"/>
<path d="M41.3488 36.3512L40.7244 39.7073" stroke="#CBAA5D" stroke-width="2" stroke-linecap="round" stroke-linejoin="round"/>
<path d="M39.8756 44.2537L39.2512 47.6098" stroke="#CBAA5D" stroke-width="2" stroke-linecap="round" stroke-linejoin="round"/>
<path d="M47.3097 36.3512L46.6755 39.7073" stroke="#CBAA5D" stroke-width="2" stroke-linecap="round" stroke-linejoin="round"/>
<path d="M45.8365 44.2537L45.2122 47.6098" stroke="#CBAA5D" stroke-width="2" stroke-linecap="round" stroke-linejoin="round"/>
<path d="M53.2609 36.3512L52.6365 39.7073" stroke="#CBAA5D" stroke-width="2" stroke-linecap="round" stroke-linejoin="round"/>
<path d="M51.7877 44.2537L51.1633 47.6098" stroke="#CBAA5D" stroke-width="2" stroke-linecap="round" stroke-linejoin="round"/>
</g>
<defs>
<clipPath id="clip0_350_731">
<rect width="93.1415" height="80" fill="white" transform="translate(0.929199)"/>
</clipPath>
</defs>
</svg>
