<svg width="156" height="156" viewBox="0 0 156 156" fill="none" xmlns="http://www.w3.org/2000/svg">
<g clip-path="url(#clip0_515_361)">
<path d="M55.8769 65.7102C53.1031 61.1634 51.5154 55.8175 51.5154 50.1102C51.5154 33.4448 65.0972 19.9375 81.8546 19.9375C98.6119 19.9375 112.194 33.4448 112.194 50.1102C112.194 51.1565 112.136 52.1838 112.041 53.1921" stroke="#CBAA5D" stroke-width="2" stroke-linecap="round" stroke-linejoin="round"/>
<path d="M94.0591 50.2813C95.0729 50.1862 96.1059 50.1292 97.158 50.1292C108.1 50.1292 117.703 55.8935 123.04 64.5496" stroke="#CBAA5D" stroke-width="2" stroke-linecap="round" stroke-linejoin="round"/>
<path d="M117.11 74.157C119.118 66.0146 126.522 59.9648 135.34 59.9648C145.708 59.9648 154.106 68.3166 154.106 78.6278C154.106 88.939 145.708 97.2907 135.34 97.2907H20.6788C10.3106 97.2907 1.91284 88.939 1.91284 78.6278C1.91284 68.3166 10.3106 59.9648 20.6788 59.9648C21.6543 59.9648 22.6108 60.0409 23.5482 60.1741" stroke="#CBAA5D" stroke-width="2" stroke-linecap="round" stroke-linejoin="round"/>
<path d="M25.7672 77.1248C23.8925 73.7955 22.8213 69.9716 22.8213 65.8814C22.8213 53.2112 33.1511 42.938 45.8913 42.938C48.0721 42.938 50.1763 43.2424 52.1849 43.7941" stroke="#CBAA5D" stroke-width="2" stroke-linecap="round" stroke-linejoin="round"/>
<path d="M44.9922 128.415C44.9922 123.697 53.5621 106.974 53.5621 106.974C53.5621 106.974 62.1321 123.716 62.1321 128.415C62.1321 133.114 58.2871 136.938 53.5621 136.938C48.8372 136.938 44.9922 133.114 44.9922 128.415Z" stroke="#CBAA5D" stroke-width="2" stroke-linecap="round" stroke-linejoin="round"/>
<path d="M103.624 145.575C103.624 140.857 112.194 124.134 112.194 124.134C112.194 124.134 120.764 140.876 120.764 145.575C120.764 150.274 116.919 154.098 112.194 154.098C107.469 154.098 103.624 150.274 103.624 145.575Z" stroke="#CBAA5D" stroke-width="2" stroke-linecap="round" stroke-linejoin="round"/>
<path d="M82.3136 103.34H91.5914L89.6593 114.964L96.9093 115.554L82.7919 133.152L84.7239 117.571L78.9277 117.38L82.3136 103.34Z" stroke="#CBAA5D" stroke-width="2" stroke-linecap="round" stroke-linejoin="round"/>
<path d="M23.4909 60.3073C13.3906 55.2088 6.48488 44.8025 6.48488 32.76C6.46575 15.7142 20.3537 1.90247 37.4936 1.90247C51.458 1.90247 63.28 11.0912 67.1632 23.7044" stroke="#CBAA5D" stroke-width="2" stroke-linecap="round" stroke-linejoin="round"/>
</g>
<defs>
<clipPath id="clip0_515_361">
<rect width="156" height="156" fill="white"/>
</clipPath>
</defs>
</svg>
