<svg width="192" height="163" viewBox="0 0 192 163" fill="none" xmlns="http://www.w3.org/2000/svg">
<path d="M176.474 1.98779H15.5256C8.06168 1.98779 2.01099 7.96839 2.01099 15.3458V113.563C2.01099 120.941 8.06168 126.921 15.5256 126.921H176.474C183.938 126.921 189.989 120.941 189.989 113.563V15.3458C189.989 7.96839 183.938 1.98779 176.474 1.98779Z" stroke="#CBAA5D" stroke-width="2" stroke-linecap="round" stroke-linejoin="round"/>
<path d="M165.614 11.3304H26.3857C18.9218 11.3304 12.8711 17.311 12.8711 24.6885V104.24C12.8711 111.618 18.9218 117.599 26.3857 117.599H165.614C173.078 117.599 179.129 111.618 179.129 104.24V24.6885C179.129 17.311 173.078 11.3304 165.614 11.3304Z" stroke="#CBAA5D" stroke-width="2" stroke-linecap="round" stroke-linejoin="round"/>
<path d="M118.353 126.921H73.6265V154.413H118.353V126.921Z" stroke="#CBAA5D" stroke-width="2" stroke-linecap="round" stroke-linejoin="round"/>
<path d="M62.2034 154.413H129.797" stroke="#CBAA5D" stroke-width="2" stroke-linecap="round" stroke-linejoin="round"/>
<path d="M43.3997 161.012H148.6" stroke="#CBAA5D" stroke-width="2" stroke-linecap="round" stroke-linejoin="round"/>
<path d="M131.727 31.1489H165.474" stroke="#CBAA5D" stroke-width="2" stroke-linecap="round" stroke-linejoin="round"/>
<path d="M165.474 45.7195H131.727V102.432H165.474V45.7195Z" stroke="#CBAA5D" stroke-width="2" stroke-linecap="round" stroke-linejoin="round"/>
<path d="M138.303 57.1295H159.601" stroke="#CBAA5D" stroke-width="2" stroke-linecap="round" stroke-linejoin="round"/>
<path d="M138.303 68.7184H159.601" stroke="#CBAA5D" stroke-width="2" stroke-linecap="round" stroke-linejoin="round"/>
<path d="M138.303 80.3074H159.601" stroke="#CBAA5D" stroke-width="2" stroke-linecap="round" stroke-linejoin="round"/>
<path d="M138.303 91.8962H159.601" stroke="#CBAA5D" stroke-width="2" stroke-linecap="round" stroke-linejoin="round"/>
<path d="M54.7624 57.3482C53.7166 55.6188 53.1133 53.6111 53.1133 51.4444C53.1133 45.1431 58.2818 40.0344 64.657 40.0344C71.0322 40.0344 76.2007 45.1431 76.2007 51.4444C76.2007 51.842 76.1806 52.2197 76.1404 52.6172" stroke="#CBAA5D" stroke-width="2" stroke-linecap="round" stroke-linejoin="round"/>
<path d="M69.2825 51.5041C69.6646 51.4643 70.0668 51.4445 70.469 51.4445C74.632 51.4445 78.2922 53.631 80.3033 56.891" stroke="#CBAA5D" stroke-width="2" stroke-linecap="round" stroke-linejoin="round"/>
<path d="M78.0509 60.5287C78.8152 57.4476 81.6307 55.1616 84.9892 55.1616C88.931 55.1616 92.1287 58.3222 92.1287 62.2183C92.1287 66.1144 88.931 69.275 84.9892 69.275H41.3684C37.4267 69.275 34.229 66.1144 34.229 62.2183C34.229 58.3222 37.4267 55.1616 41.3684 55.1616C41.7304 55.1616 42.1125 55.1815 42.4544 55.2411" stroke="#CBAA5D" stroke-width="2" stroke-linecap="round" stroke-linejoin="round"/>
<path d="M43.2991 61.6617C42.5751 60.4094 42.1729 58.9583 42.1729 57.4078C42.1729 52.6172 46.0945 48.741 50.9413 48.741C51.7658 48.741 52.5703 48.8602 53.3345 49.059" stroke="#CBAA5D" stroke-width="2" stroke-linecap="round" stroke-linejoin="round"/>
<path d="M88.408 48.8603C89.5141 47.0514 90.1577 44.9244 90.1577 42.6583C90.1577 36.019 84.7076 30.652 78.0106 30.652C72.1784 30.652 67.2914 34.727 66.125 40.1537" stroke="#CBAA5D" stroke-width="2" stroke-linecap="round" stroke-linejoin="round"/>
<path d="M92.1084 61.4232H102.506C106.649 61.4232 110.027 58.1036 110.027 53.9888C110.027 49.8741 106.669 46.5544 102.506 46.5544C102.124 46.5544 101.742 46.5743 101.359 46.634" stroke="#CBAA5D" stroke-width="2" stroke-linecap="round" stroke-linejoin="round"/>
<path d="M100.475 53.3925C101.219 52.0607 101.661 50.5499 101.661 48.9199C101.661 43.8709 97.5182 39.7959 92.4301 39.7959C91.5654 39.7959 90.7207 39.9152 89.9163 40.1338" stroke="#CBAA5D" stroke-width="2" stroke-linecap="round" stroke-linejoin="round"/>
<path d="M34.229 74.0657L32.9419 80.9037" stroke="#CBAA5D" stroke-width="2" stroke-linecap="round" stroke-linejoin="round"/>
<path d="M31.1921 90.1669L29.905 97.0049" stroke="#CBAA5D" stroke-width="2" stroke-linecap="round" stroke-linejoin="round"/>
<path d="M46.5167 74.0657L45.2095 80.9037" stroke="#CBAA5D" stroke-width="2" stroke-linecap="round" stroke-linejoin="round"/>
<path d="M43.48 90.1669L42.1929 97.0049" stroke="#CBAA5D" stroke-width="2" stroke-linecap="round" stroke-linejoin="round"/>
<path d="M58.7847 74.0657L57.4976 80.9037" stroke="#CBAA5D" stroke-width="2" stroke-linecap="round" stroke-linejoin="round"/>
<path d="M55.7478 90.1669L54.4607 97.0049" stroke="#CBAA5D" stroke-width="2" stroke-linecap="round" stroke-linejoin="round"/>
<path d="M71.0525 74.0657L69.7654 80.9037" stroke="#CBAA5D" stroke-width="2" stroke-linecap="round" stroke-linejoin="round"/>
<path d="M68.0156 90.1669L66.7285 97.0049" stroke="#CBAA5D" stroke-width="2" stroke-linecap="round" stroke-linejoin="round"/>
<path d="M83.3201 74.0657L82.033 80.9037" stroke="#CBAA5D" stroke-width="2" stroke-linecap="round" stroke-linejoin="round"/>
<path d="M80.2832 90.1669L78.9961 97.0049" stroke="#CBAA5D" stroke-width="2" stroke-linecap="round" stroke-linejoin="round"/>
<path d="M95.6078 74.0657L94.3005 80.9037" stroke="#CBAA5D" stroke-width="2" stroke-linecap="round" stroke-linejoin="round"/>
<path d="M92.571 90.1669L91.2839 97.0049" stroke="#CBAA5D" stroke-width="2" stroke-linecap="round" stroke-linejoin="round"/>
<path d="M107.876 74.0657L106.589 80.9037" stroke="#CBAA5D" stroke-width="2" stroke-linecap="round" stroke-linejoin="round"/>
<path d="M104.839 90.1669L103.552 97.0049" stroke="#CBAA5D" stroke-width="2" stroke-linecap="round" stroke-linejoin="round"/>
</svg>
