<svg width="204" height="194" viewBox="0 0 204 194" fill="none" xmlns="http://www.w3.org/2000/svg">
<path d="M10 75C19.9249 33.1408 57.5456 2 102.44 2C147.334 2 184.955 33.1408 194.879 75M10 119C19.9249 160.859 57.5456 192 102.44 192C147.334 192 184.955 160.859 194.879 119" stroke="#CBAA5D" stroke-width="4" stroke-linecap="round" stroke-linejoin="round"/>
<circle cx="10" cy="97" r="9.5" fill="#CBAA5D" stroke="#CBAA5D"/>
<circle cx="194" cy="97" r="9.5" fill="#CBAA5D" stroke="#CBAA5D"/>
<path d="M64.1069 42.0234C64.1069 41.8203 64.0756 41.638 64.0131 41.4766C63.9558 41.3099 63.8465 41.1589 63.685 41.0234C63.5235 40.8828 63.297 40.7448 63.0053 40.6094C62.7136 40.474 62.336 40.3333 61.8725 40.1875C61.3569 40.0208 60.8673 39.8333 60.4038 39.625C59.9454 39.4167 59.5392 39.1745 59.185 38.8984C58.836 38.6172 58.56 38.2917 58.3569 37.9219C58.159 37.5521 58.06 37.1224 58.06 36.6328C58.06 36.1589 58.1642 35.7292 58.3725 35.3438C58.5808 34.9531 58.8725 34.6198 59.2475 34.3438C59.6225 34.0625 60.0652 33.8464 60.5756 33.6953C61.0913 33.5443 61.6564 33.4688 62.2709 33.4688C63.1095 33.4688 63.8413 33.6198 64.4663 33.9219C65.0913 34.224 65.5756 34.638 65.9194 35.1641C66.2683 35.6901 66.4428 36.2917 66.4428 36.9688H64.1147C64.1147 36.6354 64.0444 36.3438 63.9038 36.0938C63.7683 35.8385 63.56 35.638 63.2788 35.4922C63.0027 35.3464 62.6538 35.2734 62.2319 35.2734C61.8256 35.2734 61.4871 35.3359 61.2163 35.4609C60.9454 35.5807 60.7423 35.7448 60.6069 35.9531C60.4715 36.1562 60.4038 36.3854 60.4038 36.6406C60.4038 36.8333 60.4506 37.0078 60.5444 37.1641C60.6433 37.3203 60.7892 37.4661 60.9819 37.6016C61.1746 37.737 61.4116 37.8646 61.6928 37.9844C61.9741 38.1042 62.2996 38.2214 62.6694 38.3359C63.2892 38.5234 63.8334 38.7344 64.3022 38.9688C64.7761 39.2031 65.172 39.4661 65.4897 39.7578C65.8074 40.0495 66.047 40.3802 66.2084 40.75C66.3699 41.1198 66.4506 41.5391 66.4506 42.0078C66.4506 42.5026 66.3543 42.9453 66.1616 43.3359C65.9689 43.7266 65.6902 44.0573 65.3256 44.3281C64.961 44.599 64.5261 44.8047 64.0209 44.9453C63.5157 45.0859 62.9506 45.1562 62.3256 45.1562C61.7631 45.1562 61.2084 45.0833 60.6616 44.9375C60.1147 44.7865 59.6173 44.5599 59.1694 44.2578C58.7267 43.9557 58.3725 43.5703 58.1069 43.1016C57.8413 42.6328 57.7084 42.0781 57.7084 41.4375H60.06C60.06 41.7917 60.1147 42.0911 60.2241 42.3359C60.3334 42.5807 60.4871 42.7786 60.685 42.9297C60.8881 43.0807 61.1277 43.1901 61.4038 43.2578C61.685 43.3255 61.9923 43.3594 62.3256 43.3594C62.7319 43.3594 63.0652 43.3021 63.3256 43.1875C63.5913 43.0729 63.7866 42.9141 63.9116 42.7109C64.0418 42.5078 64.1069 42.2786 64.1069 42.0234ZM74.6456 33.625H76.9816V41.1406C76.9816 42.0156 76.7941 42.7526 76.4191 43.3516C76.0493 43.9505 75.5363 44.401 74.88 44.7031C74.229 45.0052 73.479 45.1562 72.63 45.1562C71.781 45.1562 71.0258 45.0052 70.3644 44.7031C69.7081 44.401 69.1925 43.9505 68.8175 43.3516C68.4477 42.7526 68.2628 42.0156 68.2628 41.1406V33.625H70.6066V41.1406C70.6066 41.651 70.6873 42.0677 70.8488 42.3906C71.0102 42.7135 71.242 42.9505 71.5441 43.1016C71.8514 43.2526 72.2133 43.3281 72.63 43.3281C73.0571 43.3281 73.4191 43.2526 73.7159 43.1016C74.018 42.9505 74.2472 42.7135 74.4034 42.3906C74.5649 42.0677 74.6456 41.651 74.6456 41.1406V33.625ZM83.6844 40.0078H80.7625L80.7469 38.3984H83.2C83.6323 38.3984 83.9865 38.3438 84.2625 38.2344C84.5385 38.1198 84.7443 37.9557 84.8797 37.7422C85.0203 37.5234 85.0906 37.2578 85.0906 36.9453C85.0906 36.5911 85.0229 36.3047 84.8875 36.0859C84.7573 35.8672 84.5516 35.7083 84.2703 35.6094C83.9943 35.5104 83.6375 35.4609 83.2 35.4609H81.575V45H79.2313V33.625H83.2C83.8615 33.625 84.4526 33.6875 84.9734 33.8125C85.4995 33.9375 85.9448 34.1276 86.3094 34.3828C86.674 34.638 86.9526 34.9609 87.1453 35.3516C87.338 35.737 87.4344 36.1953 87.4344 36.7266C87.4344 37.1953 87.3276 37.6276 87.1141 38.0234C86.9057 38.4193 86.575 38.7422 86.1219 38.9922C85.674 39.2422 85.088 39.3802 84.3641 39.4062L83.6844 40.0078ZM83.5828 45H80.1219L81.0359 43.1719H83.5828C83.9943 43.1719 84.3302 43.1068 84.5906 42.9766C84.851 42.8411 85.0438 42.6589 85.1688 42.4297C85.2938 42.2005 85.3563 41.9375 85.3563 41.6406C85.3563 41.3073 85.299 41.0182 85.1844 40.7734C85.075 40.5286 84.8979 40.3411 84.6531 40.2109C84.4083 40.0755 84.0854 40.0078 83.6844 40.0078H81.4266L81.4422 38.3984H84.2547L84.7938 39.0312C85.4865 39.0208 86.0438 39.1432 86.4656 39.3984C86.8927 39.6484 87.2026 39.974 87.3953 40.375C87.5932 40.776 87.6922 41.2057 87.6922 41.6641C87.6922 42.3932 87.5333 43.0078 87.2156 43.5078C86.8979 44.0026 86.4318 44.375 85.8172 44.625C85.2078 44.875 84.463 45 83.5828 45ZM90.8403 33.625H92.8247L95.7466 41.9766L98.6684 33.625H100.653L96.5434 45H94.9497L90.8403 33.625ZM89.77 33.625H91.7466L92.1059 41.7656V45H89.77V33.625ZM99.7466 33.625H101.731V45H99.3872V41.7656L99.7466 33.625ZM106.598 33.625V45H104.262V33.625H106.598ZM113.965 33.625V45H111.629V33.625H113.965ZM117.465 33.625V35.4609H108.183V33.625H117.465ZM127.456 40.0078H124.534L124.519 38.3984H126.972C127.404 38.3984 127.758 38.3438 128.034 38.2344C128.31 38.1198 128.516 37.9557 128.652 37.7422C128.792 37.5234 128.863 37.2578 128.863 36.9453C128.863 36.5911 128.795 36.3047 128.659 36.0859C128.529 35.8672 128.323 35.7083 128.042 35.6094C127.766 35.5104 127.409 35.4609 126.972 35.4609H125.347V45H123.003V33.625H126.972C127.633 33.625 128.224 33.6875 128.745 33.8125C129.271 33.9375 129.717 34.1276 130.081 34.3828C130.446 34.638 130.724 34.9609 130.917 35.3516C131.11 35.737 131.206 36.1953 131.206 36.7266C131.206 37.1953 131.099 37.6276 130.886 38.0234C130.678 38.4193 130.347 38.7422 129.894 38.9922C129.446 39.2422 128.86 39.3802 128.136 39.4062L127.456 40.0078ZM127.355 45H123.894L124.808 43.1719H127.355C127.766 43.1719 128.102 43.1068 128.363 42.9766C128.623 42.8411 128.816 42.6589 128.941 42.4297C129.066 42.2005 129.128 41.9375 129.128 41.6406C129.128 41.3073 129.071 41.0182 128.956 40.7734C128.847 40.5286 128.67 40.3411 128.425 40.2109C128.18 40.0755 127.857 40.0078 127.456 40.0078H125.198L125.214 38.3984H128.027L128.566 39.0312C129.258 39.0208 129.816 39.1432 130.238 39.3984C130.665 39.6484 130.974 39.974 131.167 40.375C131.365 40.776 131.464 41.2057 131.464 41.6641C131.464 42.3932 131.305 43.0078 130.988 43.5078C130.67 44.0026 130.204 44.375 129.589 44.625C128.98 44.875 128.235 45 127.355 45ZM134.667 33.625L137.042 38.8125L139.417 33.625H141.972L138.229 40.8594V45H135.854V40.8594L132.104 33.625H134.667ZM143.276 43.9141C143.276 43.5807 143.391 43.3021 143.62 43.0781C143.854 42.8542 144.164 42.7422 144.549 42.7422C144.935 42.7422 145.242 42.8542 145.471 43.0781C145.706 43.3021 145.823 43.5807 145.823 43.9141C145.823 44.2474 145.706 44.526 145.471 44.75C145.242 44.974 144.935 45.0859 144.549 45.0859C144.164 45.0859 143.854 44.974 143.62 44.75C143.391 44.526 143.276 44.2474 143.276 43.9141ZM143.276 37.4688C143.276 37.1354 143.391 36.8568 143.62 36.6328C143.854 36.4089 144.164 36.2969 144.549 36.2969C144.935 36.2969 145.242 36.4089 145.471 36.6328C145.706 36.8568 145.823 37.1354 145.823 37.4688C145.823 37.8021 145.706 38.0807 145.471 38.3047C145.242 38.5286 144.935 38.6406 144.549 38.6406C144.164 38.6406 143.854 38.5286 143.62 38.3047C143.391 38.0807 143.276 37.8021 143.276 37.4688ZM56.5209 66.1953L58.7866 56.625H60.0522L60.3413 58.2188L57.9272 68H56.5678L56.5209 66.1953ZM55.3569 56.625L57.2319 66.1953L57.0756 68H55.56L53.0366 56.625H55.3569ZM62.3334 66.1562L64.185 56.625H66.5053L63.9897 68H62.4741L62.3334 66.1562ZM60.7631 56.625L63.0444 66.2344L62.9819 68H61.6225L59.1928 58.2109L59.5053 56.625H60.7631ZM75.7316 66.1719V68H69.6769V66.1719H75.7316ZM70.4425 56.625V68H68.0988V56.625H70.4425ZM74.9425 61.2578V63.0391H69.6769V61.2578H74.9425ZM75.7238 56.625V58.4609H69.6769V56.625H75.7238ZM80.9109 68H78.4344L78.45 66.1719H80.9109C81.5255 66.1719 82.0438 66.0339 82.4656 65.7578C82.8875 65.4766 83.2052 65.0677 83.4188 64.5312C83.6375 63.9948 83.7469 63.3464 83.7469 62.5859V62.0312C83.7469 61.4479 83.6844 60.9349 83.5594 60.4922C83.4396 60.0495 83.2599 59.6771 83.0203 59.375C82.7807 59.0729 82.4865 58.8464 82.1375 58.6953C81.7885 58.5391 81.3875 58.4609 80.9344 58.4609H78.3875V56.625H80.9344C81.6948 56.625 82.3901 56.7552 83.0203 57.0156C83.6557 57.2708 84.2052 57.638 84.6688 58.1172C85.1323 58.5964 85.4891 59.1693 85.7391 59.8359C85.9943 60.4974 86.1219 61.2344 86.1219 62.0469V62.5859C86.1219 63.3932 85.9943 64.1302 85.7391 64.7969C85.4891 65.4635 85.1323 66.0365 84.6688 66.5156C84.2104 66.9896 83.6609 67.3568 83.0203 67.6172C82.3849 67.8724 81.6818 68 80.9109 68ZM79.7625 56.625V68H77.4188V56.625H79.7625ZM97.4028 56.625V68H95.0591L90.4888 60.375V68H88.145V56.625H90.4888L95.0669 64.2578V56.625H97.4028ZM107.395 66.1719V68H101.34V66.1719H107.395ZM102.106 56.625V68H99.7619V56.625H102.106ZM106.606 61.2578V63.0391H101.34V61.2578H106.606ZM107.387 56.625V58.4609H101.34V56.625H107.387ZM115.004 65.0234C115.004 64.8203 114.973 64.638 114.91 64.4766C114.853 64.3099 114.743 64.1589 114.582 64.0234C114.42 63.8828 114.194 63.7448 113.902 63.6094C113.611 63.474 113.233 63.3333 112.769 63.1875C112.254 63.0208 111.764 62.8333 111.301 62.625C110.842 62.4167 110.436 62.1745 110.082 61.8984C109.733 61.6172 109.457 61.2917 109.254 60.9219C109.056 60.5521 108.957 60.1224 108.957 59.6328C108.957 59.1589 109.061 58.7292 109.269 58.3438C109.478 57.9531 109.769 57.6198 110.144 57.3438C110.519 57.0625 110.962 56.8464 111.473 56.6953C111.988 56.5443 112.553 56.4688 113.168 56.4688C114.006 56.4688 114.738 56.6198 115.363 56.9219C115.988 57.224 116.473 57.638 116.816 58.1641C117.165 58.6901 117.34 59.2917 117.34 59.9688H115.012C115.012 59.6354 114.941 59.3438 114.801 59.0938C114.665 58.8385 114.457 58.638 114.176 58.4922C113.9 58.3464 113.551 58.2734 113.129 58.2734C112.723 58.2734 112.384 58.3359 112.113 58.4609C111.842 58.5807 111.639 58.7448 111.504 58.9531C111.368 59.1562 111.301 59.3854 111.301 59.6406C111.301 59.8333 111.348 60.0078 111.441 60.1641C111.54 60.3203 111.686 60.4661 111.879 60.6016C112.071 60.737 112.308 60.8646 112.59 60.9844C112.871 61.1042 113.196 61.2214 113.566 61.3359C114.186 61.5234 114.73 61.7344 115.199 61.9688C115.673 62.2031 116.069 62.4661 116.387 62.7578C116.704 63.0495 116.944 63.3802 117.105 63.75C117.267 64.1198 117.348 64.5391 117.348 65.0078C117.348 65.5026 117.251 65.9453 117.058 66.3359C116.866 66.7266 116.587 67.0573 116.223 67.3281C115.858 67.599 115.423 67.8047 114.918 67.9453C114.413 68.0859 113.848 68.1562 113.223 68.1562C112.66 68.1562 112.105 68.0833 111.558 67.9375C111.012 67.7865 110.514 67.5599 110.066 67.2578C109.624 66.9557 109.269 66.5703 109.004 66.1016C108.738 65.6328 108.605 65.0781 108.605 64.4375H110.957C110.957 64.7917 111.012 65.0911 111.121 65.3359C111.23 65.5807 111.384 65.7786 111.582 65.9297C111.785 66.0807 112.025 66.1901 112.301 66.2578C112.582 66.3255 112.889 66.3594 113.223 66.3594C113.629 66.3594 113.962 66.3021 114.223 66.1875C114.488 66.0729 114.683 65.9141 114.808 65.7109C114.939 65.5078 115.004 65.2786 115.004 65.0234ZM122.753 68H120.277L120.292 66.1719H122.753C123.368 66.1719 123.886 66.0339 124.308 65.7578C124.73 65.4766 125.048 65.0677 125.261 64.5312C125.48 63.9948 125.589 63.3464 125.589 62.5859V62.0312C125.589 61.4479 125.527 60.9349 125.402 60.4922C125.282 60.0495 125.102 59.6771 124.863 59.375C124.623 59.0729 124.329 58.8464 123.98 58.6953C123.631 58.5391 123.23 58.4609 122.777 58.4609H120.23V56.625H122.777C123.537 56.625 124.233 56.7552 124.863 57.0156C125.498 57.2708 126.048 57.638 126.511 58.1172C126.975 58.5964 127.332 59.1693 127.582 59.8359C127.837 60.4974 127.964 61.2344 127.964 62.0469V62.5859C127.964 63.3932 127.837 64.1302 127.582 64.7969C127.332 65.4635 126.975 66.0365 126.511 66.5156C126.053 66.9896 125.503 67.3568 124.863 67.6172C124.227 67.8724 123.524 68 122.753 68ZM121.605 56.625V68H119.261V56.625H121.605ZM134.441 58.5703L131.347 68H128.855L133.081 56.625H134.667L134.441 58.5703ZM137.011 68L133.909 58.5703L133.659 56.625H135.261L139.511 68H137.011ZM136.87 63.7656V65.6016H130.863V63.7656H136.87ZM141.417 56.625L143.792 61.8125L146.167 56.625H148.722L144.979 63.8594V68H142.604V63.8594L138.854 56.625H141.417ZM150.307 66.1016L150.299 67.6094C150.299 68.1875 150.154 68.7708 149.862 69.3594C149.575 69.9479 149.211 70.4297 148.768 70.8047L147.596 70.2031C147.726 69.9635 147.854 69.724 147.979 69.4844C148.104 69.2448 148.208 68.9818 148.292 68.6953C148.375 68.4089 148.417 68.0833 148.417 67.7188V66.1016H150.307ZM57.49 147.602V159H55.24V150.195L52.5369 151.055V149.281L57.2478 147.602H57.49ZM66.9975 147.602V159H64.7475V150.195L62.0444 151.055V149.281L66.7553 147.602H66.9975ZM71.2003 157.914C71.2003 157.581 71.3149 157.302 71.5441 157.078C71.7784 156.854 72.0883 156.742 72.4738 156.742C72.8592 156.742 73.1665 156.854 73.3956 157.078C73.63 157.302 73.7472 157.581 73.7472 157.914C73.7472 158.247 73.63 158.526 73.3956 158.75C73.1665 158.974 72.8592 159.086 72.4738 159.086C72.0883 159.086 71.7784 158.974 71.5441 158.75C71.3149 158.526 71.2003 158.247 71.2003 157.914ZM71.2003 151.469C71.2003 151.135 71.3149 150.857 71.5441 150.633C71.7784 150.409 72.0883 150.297 72.4738 150.297C72.8592 150.297 73.1665 150.409 73.3956 150.633C73.63 150.857 73.7472 151.135 73.7472 151.469C73.7472 151.802 73.63 152.081 73.3956 152.305C73.1665 152.529 72.8592 152.641 72.4738 152.641C72.0883 152.641 71.7784 152.529 71.5441 152.305C71.3149 152.081 71.2003 151.802 71.2003 151.469ZM77.9734 153.82L76.1766 153.391L76.825 147.625H83.2156V149.445H78.6766L78.3953 151.969C78.5464 151.88 78.7755 151.786 79.0828 151.688C79.3901 151.583 79.7339 151.531 80.1141 151.531C80.6661 151.531 81.1557 151.617 81.5828 151.789C82.0099 151.961 82.3719 152.211 82.6688 152.539C82.9708 152.867 83.2 153.268 83.3563 153.742C83.5125 154.216 83.5906 154.753 83.5906 155.352C83.5906 155.857 83.5125 156.339 83.3563 156.797C83.2 157.25 82.963 157.656 82.6453 158.016C82.3276 158.37 81.9292 158.648 81.45 158.852C80.9708 159.055 80.4031 159.156 79.7469 159.156C79.2573 159.156 78.7833 159.083 78.325 158.938C77.8719 158.792 77.463 158.576 77.0984 158.289C76.7391 158.003 76.45 157.656 76.2313 157.25C76.0177 156.839 75.9057 156.37 75.8953 155.844H78.1297C78.1609 156.167 78.2443 156.445 78.3797 156.68C78.5203 156.909 78.7052 157.086 78.9344 157.211C79.1635 157.336 79.4318 157.398 79.7391 157.398C80.0255 157.398 80.2703 157.344 80.4734 157.234C80.6766 157.125 80.8406 156.974 80.9656 156.781C81.0906 156.583 81.1818 156.354 81.2391 156.094C81.3016 155.828 81.3328 155.542 81.3328 155.234C81.3328 154.927 81.2964 154.648 81.2234 154.398C81.1505 154.148 81.0385 153.932 80.8875 153.75C80.7365 153.568 80.5438 153.427 80.3094 153.328C80.0802 153.229 79.812 153.18 79.5047 153.18C79.088 153.18 78.7651 153.245 78.5359 153.375C78.312 153.505 78.1245 153.654 77.9734 153.82ZM86.9575 157.289H87.1059C87.7309 157.289 88.2674 157.214 88.7153 157.062C89.1684 156.906 89.5408 156.682 89.8325 156.391C90.1242 156.099 90.3403 155.742 90.4809 155.32C90.6216 154.893 90.6919 154.409 90.6919 153.867V151.711C90.6919 151.299 90.6502 150.938 90.5669 150.625C90.4888 150.312 90.3742 150.055 90.2231 149.852C90.0773 149.643 89.9054 149.487 89.7075 149.383C89.5148 149.279 89.3013 149.227 89.0669 149.227C88.8169 149.227 88.5955 149.289 88.4028 149.414C88.2101 149.534 88.046 149.698 87.9106 149.906C87.7804 150.115 87.6789 150.354 87.6059 150.625C87.5382 150.891 87.5044 151.169 87.5044 151.461C87.5044 151.753 87.5382 152.031 87.6059 152.297C87.6736 152.557 87.7752 152.789 87.9106 152.992C88.046 153.19 88.2153 153.349 88.4184 153.469C88.6216 153.583 88.8611 153.641 89.1372 153.641C89.4028 153.641 89.6398 153.591 89.8481 153.492C90.0617 153.388 90.2414 153.253 90.3872 153.086C90.5382 152.919 90.6528 152.734 90.7309 152.531C90.8143 152.328 90.8559 152.122 90.8559 151.914L91.5981 152.32C91.5981 152.685 91.52 153.044 91.3638 153.398C91.2075 153.753 90.9888 154.076 90.7075 154.367C90.4315 154.654 90.1111 154.883 89.7466 155.055C89.382 155.227 88.9914 155.312 88.5747 155.312C88.0434 155.312 87.5721 155.216 87.1606 155.023C86.7492 154.826 86.4002 154.555 86.1138 154.211C85.8325 153.862 85.619 153.456 85.4731 152.992C85.3273 152.529 85.2544 152.026 85.2544 151.484C85.2544 150.932 85.3429 150.414 85.52 149.93C85.7023 149.445 85.9601 149.018 86.2934 148.648C86.632 148.279 87.0356 147.99 87.5044 147.781C87.9783 147.568 88.5044 147.461 89.0825 147.461C89.6606 147.461 90.1867 147.573 90.6606 147.797C91.1346 148.021 91.5408 148.339 91.8794 148.75C92.2179 149.156 92.4783 149.643 92.6606 150.211C92.8481 150.779 92.9419 151.409 92.9419 152.102V152.883C92.9419 153.622 92.8611 154.31 92.6997 154.945C92.5434 155.581 92.3065 156.156 91.9888 156.672C91.6763 157.182 91.2856 157.62 90.8169 157.984C90.3533 158.349 89.8143 158.628 89.1997 158.82C88.5851 159.013 87.8976 159.109 87.1372 159.109H86.9575V157.289ZM103.84 154.945H100.941V153.117H103.84C104.288 153.117 104.652 153.044 104.933 152.898C105.215 152.747 105.42 152.539 105.551 152.273C105.681 152.008 105.746 151.708 105.746 151.375C105.746 151.036 105.681 150.721 105.551 150.43C105.42 150.138 105.215 149.904 104.933 149.727C104.652 149.549 104.288 149.461 103.84 149.461H101.754V159H99.41V147.625H103.84C104.73 147.625 105.493 147.786 106.129 148.109C106.769 148.427 107.259 148.867 107.597 149.43C107.936 149.992 108.105 150.635 108.105 151.359C108.105 152.094 107.936 152.729 107.597 153.266C107.259 153.802 106.769 154.216 106.129 154.508C105.493 154.799 104.73 154.945 103.84 154.945ZM111.113 147.625H113.097L116.019 155.977L118.941 147.625H120.925L116.816 159H115.222L111.113 147.625ZM110.043 147.625H112.019L112.378 155.766V159H110.043V147.625ZM120.019 147.625H122.003V159H119.66V155.766L120.019 147.625ZM131.175 147.625V159H128.839V147.625H131.175ZM139.612 156.023C139.612 155.82 139.581 155.638 139.518 155.477C139.461 155.31 139.351 155.159 139.19 155.023C139.029 154.883 138.802 154.745 138.51 154.609C138.219 154.474 137.841 154.333 137.378 154.188C136.862 154.021 136.372 153.833 135.909 153.625C135.45 153.417 135.044 153.174 134.69 152.898C134.341 152.617 134.065 152.292 133.862 151.922C133.664 151.552 133.565 151.122 133.565 150.633C133.565 150.159 133.669 149.729 133.878 149.344C134.086 148.953 134.378 148.62 134.753 148.344C135.128 148.062 135.57 147.846 136.081 147.695C136.596 147.544 137.161 147.469 137.776 147.469C138.614 147.469 139.346 147.62 139.971 147.922C140.596 148.224 141.081 148.638 141.424 149.164C141.773 149.69 141.948 150.292 141.948 150.969H139.62C139.62 150.635 139.549 150.344 139.409 150.094C139.273 149.839 139.065 149.638 138.784 149.492C138.508 149.346 138.159 149.273 137.737 149.273C137.331 149.273 136.992 149.336 136.721 149.461C136.45 149.581 136.247 149.745 136.112 149.953C135.976 150.156 135.909 150.385 135.909 150.641C135.909 150.833 135.956 151.008 136.049 151.164C136.148 151.32 136.294 151.466 136.487 151.602C136.68 151.737 136.917 151.865 137.198 151.984C137.479 152.104 137.805 152.221 138.174 152.336C138.794 152.523 139.338 152.734 139.807 152.969C140.281 153.203 140.677 153.466 140.995 153.758C141.312 154.049 141.552 154.38 141.713 154.75C141.875 155.12 141.956 155.539 141.956 156.008C141.956 156.503 141.859 156.945 141.667 157.336C141.474 157.727 141.195 158.057 140.831 158.328C140.466 158.599 140.031 158.805 139.526 158.945C139.021 159.086 138.456 159.156 137.831 159.156C137.268 159.156 136.713 159.083 136.167 158.938C135.62 158.786 135.122 158.56 134.674 158.258C134.232 157.956 133.878 157.57 133.612 157.102C133.346 156.633 133.213 156.078 133.213 155.438H135.565C135.565 155.792 135.62 156.091 135.729 156.336C135.838 156.581 135.992 156.779 136.19 156.93C136.393 157.081 136.633 157.19 136.909 157.258C137.19 157.326 137.497 157.359 137.831 157.359C138.237 157.359 138.57 157.302 138.831 157.188C139.096 157.073 139.292 156.914 139.417 156.711C139.547 156.508 139.612 156.279 139.612 156.023ZM148.955 147.625V159H146.619V147.625H148.955ZM152.455 147.625V149.461H143.174V147.625H152.455Z" fill="#ECECEC"/>
<path d="M48.4313 79.25H52.4L58.2438 95.9531L64.0875 79.25H68.0563L59.8375 102H56.65L48.4313 79.25ZM46.2906 79.25H50.2438L50.9625 95.5312V102H46.2906V79.25ZM66.2438 79.25H70.2125V102H65.525V95.5312L66.2438 79.25ZM84.4931 83.1406L78.3056 102H73.3213L81.7744 79.25H84.9463L84.4931 83.1406ZM89.6338 102L83.4306 83.1406L82.9306 79.25H86.1338L94.6338 102H89.6338ZM89.3525 93.5312V97.2031H77.3369V93.5312H89.3525ZM98.4456 79.25L103.196 89.625L107.946 79.25H113.055L105.571 93.7188V102H100.821V93.7188L93.3206 79.25H98.4456ZM128.522 88.6719H130.929C131.7 88.6719 132.335 88.5417 132.835 88.2812C133.335 88.0104 133.705 87.6354 133.944 87.1562C134.194 86.6667 134.319 86.099 134.319 85.4531C134.319 84.8698 134.205 84.3542 133.976 83.9062C133.757 83.4479 133.418 83.0938 132.96 82.8438C132.502 82.5833 131.924 82.4531 131.226 82.4531C130.674 82.4531 130.163 82.5625 129.694 82.7812C129.226 83 128.851 83.3073 128.569 83.7031C128.288 84.099 128.147 84.5781 128.147 85.1406H123.632C123.632 83.8906 123.965 82.8021 124.632 81.875C125.309 80.9479 126.215 80.224 127.351 79.7031C128.486 79.1823 129.736 78.9219 131.101 78.9219C132.642 78.9219 133.991 79.1719 135.147 79.6719C136.304 80.1615 137.205 80.8854 137.851 81.8438C138.496 82.8021 138.819 83.9896 138.819 85.4062C138.819 86.125 138.653 86.8229 138.319 87.5C137.986 88.1667 137.507 88.7708 136.882 89.3125C136.267 89.8438 135.517 90.2708 134.632 90.5938C133.746 90.9062 132.752 91.0625 131.647 91.0625H128.522V88.6719ZM128.522 92.0938V89.7656H131.647C132.887 89.7656 133.976 89.9062 134.913 90.1875C135.851 90.4688 136.637 90.875 137.272 91.4062C137.908 91.9271 138.387 92.5469 138.71 93.2656C139.033 93.974 139.194 94.7604 139.194 95.625C139.194 96.6875 138.991 97.6354 138.585 98.4688C138.179 99.2917 137.606 99.9896 136.866 100.562C136.137 101.135 135.283 101.573 134.304 101.875C133.325 102.167 132.257 102.312 131.101 102.312C130.142 102.312 129.2 102.182 128.272 101.922C127.356 101.651 126.522 101.25 125.772 100.719C125.033 100.177 124.439 99.5 123.991 98.6875C123.554 97.8646 123.335 96.8906 123.335 95.7656H127.851C127.851 96.349 127.996 96.8698 128.288 97.3281C128.58 97.7865 128.981 98.1458 129.491 98.4062C130.012 98.6667 130.59 98.7969 131.226 98.7969C131.944 98.7969 132.559 98.6667 133.069 98.4062C133.59 98.1354 133.986 97.7604 134.257 97.2812C134.538 96.7917 134.679 96.224 134.679 95.5781C134.679 94.7448 134.528 94.0781 134.226 93.5781C133.924 93.0677 133.491 92.6927 132.929 92.4531C132.366 92.2135 131.7 92.0938 130.929 92.0938H128.522ZM153.897 79.2031V102H149.397V84.3906L143.991 86.1094V82.5625L153.412 79.2031H153.897ZM81.415 132.484V136H65.8525V133L73.2119 125.109C73.9515 124.286 74.5348 123.562 74.9619 122.938C75.389 122.302 75.6963 121.734 75.8838 121.234C76.0817 120.724 76.1806 120.24 76.1806 119.781C76.1806 119.094 76.066 118.505 75.8369 118.016C75.6077 117.516 75.2692 117.13 74.8213 116.859C74.3838 116.589 73.8421 116.453 73.1963 116.453C72.5088 116.453 71.915 116.62 71.415 116.953C70.9254 117.286 70.5504 117.75 70.29 118.344C70.04 118.938 69.915 119.609 69.915 120.359H65.3994C65.3994 119.005 65.7223 117.766 66.3681 116.641C67.014 115.505 67.9254 114.604 69.1025 113.938C70.2796 113.26 71.6754 112.922 73.29 112.922C74.8838 112.922 76.2275 113.182 77.3213 113.703C78.4254 114.214 79.2588 114.953 79.8213 115.922C80.3942 116.88 80.6806 118.026 80.6806 119.359C80.6806 120.109 80.5608 120.844 80.3213 121.562C80.0817 122.271 79.7379 122.979 79.29 123.688C78.8525 124.385 78.3213 125.094 77.6963 125.812C77.0713 126.531 76.3785 127.276 75.6181 128.047L71.665 132.484H81.415ZM100.18 122.625V126.562C100.18 128.271 99.9977 129.745 99.6331 130.984C99.2685 132.214 98.7425 133.224 98.055 134.016C97.3779 134.797 96.5706 135.375 95.6331 135.75C94.6956 136.125 93.654 136.312 92.5081 136.312C91.5915 136.312 90.7373 136.198 89.9456 135.969C89.154 135.729 88.4404 135.359 87.805 134.859C87.18 134.359 86.6383 133.729 86.18 132.969C85.7321 132.198 85.3883 131.281 85.1488 130.219C84.9092 129.156 84.7894 127.938 84.7894 126.562V122.625C84.7894 120.917 84.9717 119.453 85.3363 118.234C85.7113 117.005 86.2373 116 86.9144 115.219C87.6019 114.438 88.4144 113.865 89.3519 113.5C90.2894 113.125 91.331 112.938 92.4769 112.938C93.3935 112.938 94.2425 113.057 95.0238 113.297C95.8154 113.526 96.529 113.885 97.1644 114.375C97.7998 114.865 98.3415 115.495 98.7894 116.266C99.2373 117.026 99.581 117.938 99.8206 119C100.06 120.052 100.18 121.26 100.18 122.625ZM95.6644 127.156V122.016C95.6644 121.193 95.6175 120.474 95.5238 119.859C95.4404 119.245 95.3102 118.724 95.1331 118.297C94.956 117.859 94.7373 117.505 94.4769 117.234C94.2165 116.964 93.9196 116.766 93.5863 116.641C93.2529 116.516 92.8831 116.453 92.4769 116.453C91.9665 116.453 91.5133 116.552 91.1175 116.75C90.7321 116.948 90.404 117.266 90.1331 117.703C89.8623 118.13 89.654 118.703 89.5081 119.422C89.3727 120.13 89.305 120.995 89.305 122.016V127.156C89.305 127.979 89.3467 128.703 89.43 129.328C89.5238 129.953 89.6592 130.49 89.8363 130.938C90.0238 131.375 90.2425 131.734 90.4925 132.016C90.7529 132.286 91.0498 132.484 91.3831 132.609C91.7269 132.734 92.1019 132.797 92.5081 132.797C93.0081 132.797 93.4508 132.698 93.8363 132.5C94.2321 132.292 94.5654 131.969 94.8363 131.531C95.1175 131.083 95.3258 130.5 95.4613 129.781C95.5967 129.062 95.6644 128.188 95.6644 127.156ZM119.445 132.484V136H103.882V133L111.242 125.109C111.981 124.286 112.565 123.562 112.992 122.938C113.419 122.302 113.726 121.734 113.914 121.234C114.112 120.724 114.211 120.24 114.211 119.781C114.211 119.094 114.096 118.505 113.867 118.016C113.638 117.516 113.299 117.13 112.851 116.859C112.414 116.589 111.872 116.453 111.226 116.453C110.539 116.453 109.945 116.62 109.445 116.953C108.955 117.286 108.58 117.75 108.32 118.344C108.07 118.938 107.945 119.609 107.945 120.359H103.429C103.429 119.005 103.752 117.766 104.398 116.641C105.044 115.505 105.955 114.604 107.132 113.938C108.31 113.26 109.705 112.922 111.32 112.922C112.914 112.922 114.257 113.182 115.351 113.703C116.455 114.214 117.289 114.953 117.851 115.922C118.424 116.88 118.711 118.026 118.711 119.359C118.711 120.109 118.591 120.844 118.351 121.562C118.112 122.271 117.768 122.979 117.32 123.688C116.882 124.385 116.351 125.094 115.726 125.812C115.101 126.531 114.409 127.276 113.648 128.047L109.695 132.484H119.445ZM127.507 122.672H129.913C130.684 122.672 131.319 122.542 131.819 122.281C132.319 122.01 132.689 121.635 132.929 121.156C133.179 120.667 133.304 120.099 133.304 119.453C133.304 118.87 133.189 118.354 132.96 117.906C132.741 117.448 132.403 117.094 131.944 116.844C131.486 116.583 130.908 116.453 130.21 116.453C129.658 116.453 129.147 116.562 128.679 116.781C128.21 117 127.835 117.307 127.554 117.703C127.272 118.099 127.132 118.578 127.132 119.141H122.616C122.616 117.891 122.95 116.802 123.616 115.875C124.293 114.948 125.2 114.224 126.335 113.703C127.47 113.182 128.72 112.922 130.085 112.922C131.627 112.922 132.976 113.172 134.132 113.672C135.288 114.161 136.189 114.885 136.835 115.844C137.481 116.802 137.804 117.99 137.804 119.406C137.804 120.125 137.637 120.823 137.304 121.5C136.97 122.167 136.491 122.771 135.866 123.312C135.252 123.844 134.502 124.271 133.616 124.594C132.731 124.906 131.736 125.062 130.632 125.062H127.507V122.672ZM127.507 126.094V123.766H130.632C131.871 123.766 132.96 123.906 133.897 124.188C134.835 124.469 135.621 124.875 136.257 125.406C136.892 125.927 137.371 126.547 137.694 127.266C138.017 127.974 138.179 128.76 138.179 129.625C138.179 130.688 137.976 131.635 137.569 132.469C137.163 133.292 136.59 133.99 135.851 134.562C135.121 135.135 134.267 135.573 133.288 135.875C132.309 136.167 131.241 136.312 130.085 136.312C129.127 136.312 128.184 136.182 127.257 135.922C126.34 135.651 125.507 135.25 124.757 134.719C124.017 134.177 123.424 133.5 122.976 132.688C122.538 131.865 122.319 130.891 122.319 129.766H126.835C126.835 130.349 126.981 130.87 127.272 131.328C127.564 131.786 127.965 132.146 128.476 132.406C128.996 132.667 129.575 132.797 130.21 132.797C130.929 132.797 131.543 132.667 132.054 132.406C132.575 132.135 132.97 131.76 133.241 131.281C133.522 130.792 133.663 130.224 133.663 129.578C133.663 128.745 133.512 128.078 133.21 127.578C132.908 127.068 132.476 126.693 131.913 126.453C131.351 126.214 130.684 126.094 129.913 126.094H127.507Z" fill="#CBAA5D"/>
</svg>
