<svg width="130" height="130" viewBox="0 0 130 130" fill="none" xmlns="http://www.w3.org/2000/svg">
<g clip-path="url(#clip0_350_1474)">
<path d="M127.123 0.643555H2.87672C1.64338 0.643555 0.643555 1.64338 0.643555 2.87672V127.123C0.643555 128.357 1.64338 129.356 2.87672 129.356H127.123C128.357 129.356 129.356 128.357 129.356 127.123V2.87672C129.356 1.64338 128.357 0.643555 127.123 0.643555Z" stroke="#CBAA5D" stroke-width="2.5" stroke-linecap="round" stroke-linejoin="round"/>
<path d="M129.357 11.5906H36.5288" stroke="#CBAA5D" stroke-width="2.5" stroke-linecap="round" stroke-linejoin="round"/>
<path d="M29.707 11.5906H28.7417" stroke="#CBAA5D" stroke-width="2.5" stroke-linecap="round" stroke-linejoin="round"/>
<path d="M24.0499 11.7L16.8999 11.7" stroke="#CBAA5D" stroke-width="2.5" stroke-linecap="round" stroke-linejoin="round"/>
<path d="M11.6614 11.5906H10.696" stroke="#CBAA5D" stroke-width="2.5" stroke-linecap="round" stroke-linejoin="round"/>
<path d="M41.8831 24.1079H87.7113" stroke="#CBAA5D" stroke-width="2.5" stroke-linecap="round" stroke-linejoin="round"/>
<path d="M13.6306 33.2272H31.8757" stroke="#CBAA5D" stroke-width="2.5" stroke-linecap="round" stroke-linejoin="round"/>
<path d="M84.6672 55.25H13.6306V39.4569H114.85V55.25H93.9796" stroke="#CBAA5D" stroke-width="2.5" stroke-linecap="round" stroke-linejoin="round"/>
<path d="M13.6306 65H41.8831" stroke="#CBAA5D" stroke-width="2.5" stroke-linecap="round" stroke-linejoin="round"/>
<path d="M99.4049 71.2297H114.85V87.0228H13.6306V71.2297H81.3593" stroke="#CBAA5D" stroke-width="2.5" stroke-linecap="round" stroke-linejoin="round"/>
<path d="M13.6306 96.7728H41.8831" stroke="#CBAA5D" stroke-width="2.5" stroke-linecap="round" stroke-linejoin="round"/>
<path d="M114.85 103.002H13.6306V118.796H114.85V103.002Z" stroke="#CBAA5D" stroke-width="2.5" stroke-linecap="round" stroke-linejoin="round"/>
<path d="M88.3678 68.2371L95.1059 84.7574L103.562 81.3208L97.0881 65.5985L106.6 64.0089L86.5143 49.9857L81.3594 73.3921L88.3678 68.2371Z" stroke="#CBAA5D" stroke-width="2.5" stroke-linecap="round" stroke-linejoin="round"/>
</g>
<defs>
<clipPath id="clip0_350_1474">
<rect width="130" height="130" fill="white"/>
</clipPath>
</defs>
</svg>
