<svg width="117" height="130" viewBox="0 0 117 130" fill="none" xmlns="http://www.w3.org/2000/svg">
<g clip-path="url(#clip0_350_1436)">
<path d="M23.9117 9.76288C23.9117 9.76288 19.6964 67.0852 58.8766 70.8757C58.8766 70.8757 91.1835 75.9663 93.7899 9.76288H23.9117Z" stroke="#CBAA5D" stroke-width="2.5" stroke-linecap="round" stroke-linejoin="round"/>
<path d="M93.2493 0.643555H24.5746C22.0546 0.643555 20.0117 2.68498 20.0117 5.20321C20.0117 7.72144 22.0546 9.76286 24.5746 9.76286H93.2493C95.7693 9.76286 97.8122 7.72144 97.8122 5.20321C97.8122 2.68498 95.7693 0.643555 93.2493 0.643555Z" stroke="#CBAA5D" stroke-width="2.5" stroke-linecap="round" stroke-linejoin="round"/>
<path d="M93.7833 9.76288H114.081C115.169 9.76288 116.051 10.6446 116.051 11.7322V28.0144C116.051 39.1545 111.121 49.8762 102.272 56.6401C96.3897 61.1386 88.4031 64.2599 77.9194 62.7347" stroke="#CBAA5D" stroke-width="2.5" stroke-linecap="round" stroke-linejoin="round"/>
<path d="M94.0474 17.6658H104.814C106.133 17.6658 107.202 18.7341 107.202 20.0535V29.7455C107.202 37.1208 104.061 44.2129 98.4236 48.6856C95.0191 51.3886 90.5142 53.3386 84.7092 52.9203" stroke="#CBAA5D" stroke-width="2.5" stroke-linecap="round" stroke-linejoin="round"/>
<path d="M23.2165 9.76288H2.91853C1.8309 9.76288 0.949219 10.6446 0.949219 11.7322V28.0144C0.949219 39.1545 5.87892 49.8762 14.7279 56.6401C20.6101 61.1386 28.5967 64.2599 39.0804 62.7347" stroke="#CBAA5D" stroke-width="2.5" stroke-linecap="round" stroke-linejoin="round"/>
<path d="M22.9526 17.6658H12.1794C10.8601 17.6658 9.79175 18.7341 9.79175 20.0535V29.7455C9.79175 37.1208 12.9323 44.2129 18.57 48.6856C21.9744 51.3886 26.4794 53.3386 32.2843 52.9203" stroke="#CBAA5D" stroke-width="2.5" stroke-linecap="round" stroke-linejoin="round"/>
<path d="M44.969 66.5188V75.9985C44.969 78.103 46.6744 79.8148 48.7853 79.8148H68.3111C70.4155 79.8148 72.1274 78.1094 72.1274 75.9985V67.7416" stroke="#CBAA5D" stroke-width="2.5" stroke-linecap="round" stroke-linejoin="round"/>
<path d="M50.0145 79.8084C50.0145 79.8084 50.7096 88.6574 42.4398 95.1832C39.5051 97.5 37.7031 100.95 37.7031 104.682V104.901H80.9185V104.637C80.9185 100.756 79.0393 97.101 75.8472 94.9C71.812 92.1134 66.9145 87.1772 67.4229 79.8148" stroke="#CBAA5D" stroke-width="2.5" stroke-linecap="round" stroke-linejoin="round"/>
<path d="M33.5264 104.907H83.7051C85.7259 104.907 87.367 106.549 87.367 108.569V129.356H29.8645V108.569C29.8645 106.549 31.5056 104.907 33.5264 104.907Z" stroke="#CBAA5D" stroke-width="2.5" stroke-linecap="round" stroke-linejoin="round"/>
<path d="M46.1082 115.603H70.9884" stroke="#CBAA5D" stroke-width="2.5" stroke-linecap="round" stroke-linejoin="round"/>
</g>
<defs>
<clipPath id="clip0_350_1436">
<rect width="116.389" height="130" fill="white" transform="translate(0.305664)"/>
</clipPath>
</defs>
</svg>
